<svg data-v-fde0c5aa="" xmlns="http://www.w3.org/2000/svg" viewBox="0 0 300 300" class="iconAboveSlogan"><!----><defs data-v-fde0c5aa=""><!----></defs><rect data-v-fde0c5aa="" fill="#E0EAEF" x="0" y="0" width="300px" height="300px" class="logo-background-square"></rect><defs data-v-fde0c5aa=""><!----></defs><g data-v-fde0c5aa="" id="a6b3bfa4-2173-4936-96d6-8381f4901087" fill="#012F41" transform="matrix(7.873218059539795,0,0,7.873218059539795,23.319921810237204,143.96873010504586)"><path d="M1.52 3.56L0.09 4.98L0.20 5.20L0.20 5.20Q0.72 4.81 0.74 5.63L0.74 5.63L0.73 11.55L0.73 11.55Q0.81 12.57 1.80 12.74L1.80 12.74L2.90 11.67L2.90 11.67Q2.30 11.17 2.32 10.29L2.32 10.29L2.32 8.05L3.88 8.03L4.74 6.87L4.57 6.70L3.06 6.70L2.37 7.66L2.37 5.13L4.43 5.14L5.58 3.87L5.53 3.63L3.13 3.63L2.26 4.87L2.26 4.87Q2.26 3.85 1.52 3.56L1.52 3.56ZM8.66 6.49L8.66 6.49L8.66 6.49Q7.66 6.45 6.59 7.15L6.59 7.15L6.59 7.15Q5.52 7.85 6.14 9.02L6.14 9.02L7.66 8.13L7.66 8.13Q6.99 7.09 8.25 7.06L8.25 7.06L8.25 7.06Q9.51 7.03 9.35 8.76L9.35 8.76L7.14 8.80L5.44 10.71L5.44 10.71Q5.37 11.55 6.04 12.14L6.04 12.14L6.04 12.14Q6.71 12.73 7.36 12.70L7.36 12.70L7.36 12.70Q8.02 12.67 8.48 12.39L8.48 12.39L8.48 12.39Q8.95 12.10 9.40 11.57L9.40 11.57L9.40 11.57Q9.56 12.52 10.51 12.69L10.51 12.69L11.72 11.38L11.64 11.21L11.64 11.21Q11.09 11.33 10.94 10.58L10.94 10.58L10.94 8.16L10.94 8.16Q10.87 7.23 10.27 6.88L10.27 6.88L10.27 6.88Q9.67 6.53 8.66 6.49ZM6.84 9.88L9.34 9.88L9.34 11.11L9.34 11.11Q9.10 11.42 8.20 11.39L8.20 11.39L8.20 11.39Q7.31 11.35 6.58 10.12L6.58 10.12L6.84 9.88ZM13.13 3.24L11.96 4.21L11.96 4.21Q12.13 4.54 12.15 5.11L12.15 5.11L12.15 5.11Q12.09 11.51 12.20 12.01L12.20 12.01L12.20 12.01Q12.30 12.50 12.84 12.81L12.84 12.81L14.59 11.55L14.38 11.33L14.38 11.33Q13.92 11.43 13.70 11.03L13.70 11.03L13.70 11.03Q13.48 10.62 13.56 4.07L13.56 4.07L13.56 4.07Q13.47 3.51 13.13 3.24L13.13 3.24ZM17.64 6.62L17.64 6.62L17.64 6.62Q17.25 6.77 16.92 6.99L16.92 6.99L16.92 6.99Q16.58 7.21 16.23 7.49L16.23 7.49L16.23 7.49Q13.77 9.38 15.37 11.66L15.37 11.66L15.37 11.66Q15.83 12.21 16.29 12.45L16.29 12.45L16.29 12.45Q16.75 12.69 17.40 12.70L17.40 12.70L17.40 12.70Q18.05 12.70 18.73 12.07L18.73 12.07L18.73 12.07Q19.41 11.44 19.85 10.79L19.85 10.79L19.63 10.60L19.63 10.60Q19.46 10.82 19.19 11.07L19.19 11.07L19.19 11.07Q18.92 11.32 18.48 11.32L18.48 11.32L18.48 11.32Q18.05 11.33 17.54 10.99L17.54 10.99L17.54 10.99Q16.01 10.14 16.34 8.37L16.34 8.37L16.34 8.37Q16.52 7.62 17.38 7.85L17.38 7.85L17.38 7.85Q18.11 8.12 18.39 8.98L18.39 8.98L19.73 7.93L19.73 7.93Q19.71 7.33 19.28 7.00L19.28 7.00L19.28 7.00Q18.85 6.66 18.44 6.56L18.44 6.56L18.44 6.56Q18.02 6.47 17.64 6.62ZM22.61 6.49L22.61 6.49Q21.46 7.24 20.99 7.80L20.99 7.80L20.99 7.80Q20.51 8.35 20.32 8.92L20.32 8.92L20.32 8.92Q20.13 9.48 20.26 10.33L20.26 10.33L20.26 10.33Q20.38 11.18 21.25 11.96L21.25 11.96L21.25 11.96Q22.12 12.75 22.64 12.75L22.64 12.75L22.64 12.75Q23.16 12.76 24.27 11.74L24.27 11.74L24.27 11.74Q24.71 11.35 25.03 10.91L25.03 10.91L25.03 10.91Q25.35 10.47 25.51 9.67L25.51 9.67L25.51 9.67Q25.66 8.87 25.25 7.90L25.25 7.90L25.25 7.90Q24.21 6.30 22.61 6.49L22.61 6.49ZM22.39 7.70L22.39 7.70L22.39 7.70Q23.26 7.83 23.76 8.81L23.76 8.81L23.76 8.81Q24.27 9.79 24.10 10.78L24.10 10.78L24.10 10.78Q23.93 11.76 23.05 11.29L23.05 11.29L23.05 11.29Q22.17 10.81 21.72 10.00L21.72 10.00L21.72 10.00Q21.28 9.19 21.40 8.37L21.40 8.37L21.40 8.37Q21.52 7.56 22.39 7.70ZM27.56 6.42L25.88 7.64L26.04 7.87L26.04 7.87Q26.54 7.56 26.49 8.50L26.49 8.50L26.49 8.50Q26.42 11.46 26.51 11.91L26.51 11.91L26.51 11.91Q26.60 12.37 27.17 12.71L27.17 12.71L28.62 11.46L28.62 11.29L28.62 11.29Q28.16 11.40 28.04 10.78L28.04 10.78L28.04 10.78Q27.92 10.17 27.99 8.27L27.99 8.27L27.99 8.27Q28.87 7.48 29.47 7.71L29.47 7.71L29.47 7.71Q30.08 7.94 30.07 9.37L30.07 9.37L30.07 9.37Q30.04 11.42 30.08 11.91L30.08 11.91L30.08 11.91Q30.13 12.40 30.67 12.76L30.67 12.76L32.09 11.49L32.06 11.33L32.06 11.33Q31.71 11.44 31.59 10.81L31.59 10.81L31.59 10.81Q31.47 10.18 31.54 8.74L31.54 8.74L31.54 8.74Q31.59 7.86 31.40 7.33L31.40 7.33L31.40 7.33Q31.21 6.80 30.58 6.56L30.58 6.56L30.58 6.56Q29.96 6.31 29.43 6.57L29.43 6.57L29.43 6.57Q28.90 6.83 28.55 7.12L28.55 7.12L28.55 7.12Q28.21 7.40 28.02 7.62L28.02 7.62L28.02 7.62Q28.08 6.77 27.56 6.42L27.56 6.42Z"></path></g><defs data-v-fde0c5aa=""><linearGradient data-v-fde0c5aa="" gradientTransform="rotate(25)" id="be37253b-43e4-4d9d-a1b5-988c67e53df3" x1="0%" y1="0%" x2="100%" y2="0%"><stop data-v-fde0c5aa="" offset="0%" stop-color="#08C7D6" stop-opacity="1"></stop><stop data-v-fde0c5aa="" offset="100%" stop-color="#02023E" stop-opacity="1"></stop></linearGradient></defs><g data-v-fde0c5aa="" id="d8a5db4f-16b4-467f-974a-94657dfc891a" stroke="none" fill="url(#be37253b-43e4-4d9d-a1b5-988c67e53df3)" transform="matrix(1.9455134868621826,0,0,1.9455134868621826,49.61150867776104,1.0897902673755695)"><path d="M81.3 27.3c.2 2.2-1 3.8-3.6 4.9-1.1.5-3.6 1.1-7.4 2 1.2.3 2.8.4 5 .1 2.7-.3 4.5-.5 5.4-.4-.6 1.9-2.3 3.2-4.8 3.8-1.3.3-4 .5-7.9.7-.4-.2 3.5-.1 11.7.4-.6 1.9-2.3 2.9-5.1 3-1 0-2.3-.1-3.9-.2-2.3-.2-3.6-.4-3.8-.4 3.3 1.3 7.2 1.9 11.7 1.8-.5 2.3-2.5 3.1-5.8 2.6-1-.2-2.4-.5-4-1-1.9-.6-3-.9-3.3-1 2.4 1.5 6.1 2.9 11.1 4.1-1.3 1.8-3.3 2.2-6.2 1.2-.8-.3-1.9-.8-3.4-1.6-1.4-.7-2.3-1.2-2.8-1.3 2.2 2.3 5.6 3.8 10 4.5-1.2 1-2.5 1.5-3.9 1.4-1-.1-2.3-.6-3.9-1.4-2.1-1-3.4-1.7-4-1.9-1.6-.5-3-.5-4.3-.1-.3.5-.7 1.1-1.1 2-.5 1.2-.9 1.9-1 2.1.8.1 1.3-.2 1.7-.9.4-.9.8-1.4 1.1-1.5.7-.1 1.6.1 2.7.4 1.1.3 2 .4 2.8.3-.6 1.5-1.7 2.2-3.1 2.1 0 .3.3.4.8.4.7-.1 1.1-.1 1.2 0 0 1-.4 1.7-1.3 2.2-.9.5-1.7.6-2.5.2 0 .3.2.7.5 1.2.2.5.3 1 .2 1.5 0 .6-.2.7-.5.4-.6-.6-.9-.9-1-.9.2.6.3 1.2.2 2-.1 1-.2 1.7-.2 2.2-1.5-.9-2.2-2.7-2.1-5.5-.4-.1-.7.1-1 .4-.3.4-.5.6-.8.6.8.5 1.5 1.5 2.1 3.1.6 1.8 1.2 3 1.7 3.4.2.1.8.2 1.6.5.7.2 1.4.3 1.8.4 1.5.3 2.7.2 3.8-.2.2 1.3-.3 2.3-1.4 3.1-1.5 0-2.8-.5-3.8-1.4-.1.5.3 1.1 1.4 1.8 1.2.9 1.9 1.5 2.1 2-1.8 1-3.4.9-5-.4-1.2-1-2.1-2.5-2.6-4.4-.1.9.4 2.3 1.5 4.1 1.2 1.8 1.7 3.4 1.6 4.9-.5.4-1.2.5-2.1.3-.2-.1-.6-.2-1.1-.4-.4-.2-.7-.3-1-.3-.2-.8-.5-2.3-1-4.3-.5-1.8-.8-3.2-1-4.3-.3 1.2-.2 2.7.2 4.7.1.5.3 1.3.6 2.4.2 1 .4 1.7.5 2.2-2 1.5-3 2.3-3.1 2.4-1.4-.6-2.5-1.5-3.4-2.8.9-5.7 1.4-8.4 1.4-8.3-.4.8-.8 2.1-1.2 4-.5 1.9-.9 3.2-1.2 4-1.1.6-2.4.8-3.8.7-.1-1.5.2-3.1 1.1-4.8.1-.2.5-.9 1.2-2.1.5-.8.9-1.5 1.1-2.2-.3.2-.7.7-1.3 1.6-.7 1.1-1.2 1.8-1.6 2.2-1.6 1.8-3.3 2-5.1.8.3-.6.9-1.2 1.9-1.9 1-.7 1.6-1.3 1.9-1.9-1.1.9-2.3 1.3-3.6 1.2-1.6-.1-2.2-1.1-1.9-3 3.2.5 5.5.2 6.9-.7.6-.5 1.3-1.6 1.9-3.3.5-1.6 1.3-2.6 2.2-2.9-.8-.7-1.4-1.2-1.7-1.4.2 1.6-.4 3.4-1.7 5.5-.3-.5-.5-1.1-.6-1.8-.1-.9 0-1.5.3-2-.1-.2-.2-.3-.3-.2-.1 0-.2.1-.3.4-.3.6-.7.8-1 .6-.1-.6 0-1.2.3-1.8.5-.9.7-1.3.7-1.4-1.3-.2-2-.3-2.2-.4-1-.3-1.6-.9-1.6-1.7-.1-.5 0-.7.5-.7h1.2c-.2-.1-.5-.3-.8-.4-.5-.2-.8-.4-.9-.4-.7-.4-1-.9-1.1-1.5.8.1 1.8-.1 3-.4 1.1-.3 2.1-.4 2.9-.3 1.6 1.7 2.1 2.5 1.7 2.4.3-.2.5-.4.4-.7-.1-.2-.2-.5-.5-.9-.7-1-1-1.9-.9-2.5-1.4-.5-2.9-.4-4.5.1-.7.2-2.1.8-4.2 1.8-1.7.8-3 1.3-4.1 1.4-1.5.2-2.8-.3-4.1-1.3 2.1-.2 5.7-1.7 11.1-4.5-.2 0-2.3.9-6.1 2.5-2.9 1.3-5.2 1.2-7-.1 1-.7 2.8-1.5 5.3-2.4 2.9-.9 4.8-1.6 5.8-2.2.3.1-2.1.6-7.2 1.6-3.4.6-5.4-.2-5.9-2.6.7 0 4.6-.4 11.7-1.4-.8-.1-1.9-.1-3.4 0-2.1.1-3.4.2-3.8.2-3 0-4.8-.8-5.5-2.6 1-.3 2.9-.3 5.6-.1 2.6.2 4.6.1 5.8-.2-.8-.2-2.1-.4-3.8-.6-1.8-.2-3.1-.4-3.8-.5-2.8-.6-4.4-1.8-4.9-3.8 1 .1 2.7.2 5 .4 2.1.2 3.8.3 5 .3-.7-.4-1.9-.8-3.4-1.2-1.7-.5-2.9-.8-3.5-1.1-2.6-1-4-2.7-4.1-5 2.9 1.1 6.2 2 10 2.7-.8-.5-2-1.1-3.5-1.8-2-.8-3.2-1.3-3.7-1.5-2.8-1.4-4.1-3.5-4.2-6.4 2.5 1.7 6.3 3.2 11.7 4.6 6.6 1.7 10.7 3 12.5 3.7-.7 1.6-.8 3.3-.4 5 .3 1.5.9 2.6 1.9 3.4.9.8 1.8 1 2.6.6.9-.5 1.5-1.8 1.8-3.8 0-.1-.1-.3-.4-.5-.2-.2-.3-.4-.3-.6-.6-.2-1.3-.1-1.9.2-.6.3-1 .3-1.2.1-.3-1.2 0-2.1.9-2.9.4-.3.8-.5 1.2-.5.4 0 .8.2 1.1.6.2-.1.3-.1.3-.2s-.1-.1-.3-.3c-.4-.3-.5-.6-.4-.9 2.6-.6 4.7.3 6.1 2.6 1.3 2.1 1.6 4.1.8 6 .4.3 1 .2 1.7-.1.7-.3 1.2-.7 1.4-1.2 0-.6-.6-2.1-1.9-4.6-.4-.8-.5-1.5-.4-2 .1-.6.7-1.2 1.6-1.6 1.1-.5 3.1-1 6-1.6 3.6-.6 6.1-1.2 7.4-1.6 1.3-.4 5.1-1.8 11.4-4.1-.2 2.6-1.6 4.6-4.2 6-.7.4-1.9.9-3.6 1.5-1.6.6-2.8 1.1-3.6 1.5 1.8.5 5-.3 9.5-2zM32 58c-.1.3 0 .6.3.9.3.2.4.5.4.8-.5-.1-.9 0-1.2.4-.3.3-.6.3-.9 0-.2-1.3.3-2 1.4-2.1zm1.7-5.5c.4.5.2 1.1-.5 1.6s-1.4.8-2.2.8c0 .3.3-.4 1-2h1.1c.4 0 .6-.1.6-.4zm1.7 9.7c-.2-.9-.1-1.5.5-2 .8-.6 1.2-1 1.2-1.2-2.6.5-3.9.7-3.8.7-1-1.4-1.2-2.4-.7-3.1.3 0 .8.1 1.5.2.6.2 1.1.2 1.6.1-.1-.4-.5-.8-1.3-1.2-.7-.4-1.1-.9-1.1-1.5l1-1.1c.5-.3 1.1-.4 1.8-.3.5 1.3 1.3 2.3 2.4 3.1.6-.3 1.3-.4 2.2-.1 1.1.3 1.9.5 2.3.5-.2.3-.6.5-1.3.8-.6.2-1 .5-1.2.9.1.2.3.6.6 1.3.3.6.5 1.1.6 1.4.2 1-.4 1.5-1.9 1.5v-1.4c-.1-.5-.3-.7-.7-.7-.5.1-.9.4-1.1 1.2-.2.9-.5 1.4-.6 1.6h.3s-.7-.3-2.3-.7zm-.7 0c.7.1 1.1.3 1.2.8.1.2 0 .8-.2 1.6-.8-.3-1.1-1.1-1-2.4zm6.2 1.7c-.2-.1-.3-.2-.3-.6v-.4-.4c.4.1.6-.1.7-.3.6.2.7.4.4.7-.5.6-.8 1-.8 1zm10.7-11.8c2.3-1.3 3.3-2.2 3.1-2.8-.7 1-1.9 1.8-3.4 2.4-.5-.2-1.3-.9-2.4-1.9-.9-.9-1.4-1.3-1.4-1.2.2.2.5.6.9 1 .4.5.7.8.9 1 .7.9 1.5 1.3 2.3 1.5zm18.7 4.5c.4.5.5 1 .2 1.6-.1.1-.2.4-.5.7-.2.3-.3.6-.4.7-.7.1-1.5 0-2.2-.2-.9-.3-1.5-.5-2-.5l2.1 2.1c-.2 1.2-.9 1.7-2.1 1.7-.2-.2-.5-.7-.7-1.7-.2-.8-.7-1.1-1.3-1.1-.3 0-.4.3-.4.8.1.7.1 1.2 0 1.3-1 .1-1.7-.2-2.1-1 0-.6.1-1.1.5-1.6.5-.6.8-1 .9-1.2-.1-.6-.3-1-.9-1.2-.2-.1-.4-.2-.8-.3-.4-.1-.7-.2-.8-.2.2-.1.5-.2 1-.4.4-.2.8-.3 1-.4.9-.3 1.6-.2 2.2.2.6-.1 1.2-.5 1.7-1.4.5-.9 1-1.5 1.4-1.7 1.3-.2 2 .3 2 1.4.4-.2.4-.4.1-.7-.4-.4-.6-.7-.4-1 1.4.4 2.1.6 2 .6.6.3.9.9.7 1.8-.9-.5-1.7-.4-2.6.1-.3.2-.6.5-1 .8-.5.4-.7.7-.9.8 0-.2 1-.2 3.3 0zm-7.9 7.3c-.1-.1-.3-.1-.5-.3-.2-.1-.4-.2-.5-.2-.3-.3-.5-.7-.4-1.2 1.1 0 1.6.6 1.4 1.7zm5.1-1.7c.6.1.8.5.6 1.1-.1.2-.3.7-.6 1.3-.5-.3-.8-1-.7-2.1.4 0 .6-.1.7-.3zM71 58c.6-.1 1.1.2 1.3.8.2.6.2 1.1-.2 1.6-.3 0-.6-.1-.9-.5-.3-.3-.7-.4-1.2-.2.1-.1.2-.4.5-.8.2-.3.4-.6.5-.9z"></path></g><defs data-v-fde0c5aa=""><!----></defs><g data-v-fde0c5aa="" id="77d519a2-1aa5-4c5a-a1cf-c31400c6deb5" fill="#012F41" transform="matrix(0.5453468561172485,0,0,0.5453468561172485,54.90514163182666,253.67942991515417)"><path d="M7.83 3.22L7.83 2.21L1.13 2.21L1.13 11.48L2.18 11.48L2.18 7.46L7.21 7.46L7.21 6.44L2.18 6.44L2.18 3.22ZM17.35 7.92L20.57 7.92L22.81 11.48L24.05 11.48L21.62 7.74C22.65 7.50 23.86 6.90 23.86 5.11C23.86 3.35 22.64 2.21 20.73 2.21L16.30 2.21L16.30 11.48L17.35 11.48ZM17.35 3.21L20.61 3.21C21.92 3.21 22.81 3.93 22.81 5.11C22.81 6.55 21.55 6.93 20.55 6.93L17.35 6.93ZM39.48 3.22L39.48 2.21L32.66 2.21L32.66 11.48L39.48 11.48L39.48 10.47L33.71 10.47L33.71 7.35L38.86 7.35L38.86 6.33L33.71 6.33L33.71 3.22ZM54.99 3.22L54.99 2.21L48.17 2.21L48.17 11.48L54.99 11.48L54.99 10.47L49.22 10.47L49.22 7.35L54.38 7.35L54.38 6.33L49.22 6.33L49.22 3.22ZM80.49 3.22L80.49 2.21L73.67 2.21L73.67 11.48L80.49 11.48L80.49 10.47L74.72 10.47L74.72 7.35L79.87 7.35L79.87 6.33L74.72 6.33L74.72 3.22ZM93.09 2.21L89.18 2.21L89.18 11.48L93.09 11.48C95.30 11.48 97.34 9.74 97.34 6.85C97.34 3.95 95.30 2.21 93.09 2.21ZM93.04 10.49L90.23 10.49L90.23 3.21L93.04 3.21C95.02 3.21 96.29 4.86 96.29 6.85C96.29 8.83 95.02 10.49 93.04 10.49ZM112.76 2.21L112.76 7.52C112.76 9.67 111.33 10.57 109.86 10.57C108.39 10.57 106.97 9.67 106.97 7.52L106.97 2.21L105.92 2.21L105.92 7.49C105.92 9.95 107.55 11.59 109.86 11.59C112.18 11.59 113.81 9.94 113.81 7.49L113.81 2.21ZM126.94 10.57C124.68 10.57 123.42 8.93 123.42 6.85C123.42 4.76 124.68 3.12 126.94 3.12C128.46 3.12 129.47 3.85 129.95 4.98L131.05 4.98C130.47 3.29 128.95 2.10 126.85 2.10C124.07 2.10 122.37 4.21 122.37 6.85C122.37 9.48 124.07 11.59 126.85 11.59C128.95 11.59 130.47 10.40 131.05 8.71L129.95 8.71C129.47 9.84 128.46 10.57 126.94 10.57ZM143.78 2.21L142.46 2.21L138.53 11.48L139.69 11.48L140.83 8.79L145.42 8.79L146.55 11.48L147.71 11.48ZM141.23 7.83L143.12 3.30L145.01 7.83ZM161.64 2.21L154.13 2.21L154.13 3.22L157.36 3.22L157.36 11.48L158.41 11.48L158.41 3.22L161.64 3.22ZM171.02 2.21L169.97 2.21L169.97 11.48L171.02 11.48ZM184.41 2.10C181.59 2.10 179.70 4.21 179.70 6.85C179.70 9.48 181.59 11.59 184.41 11.59C187.22 11.59 189.11 9.48 189.11 6.85C189.11 4.21 187.22 2.10 184.41 2.10ZM184.41 10.57C182.15 10.57 180.75 8.93 180.75 6.85C180.75 4.76 182.15 3.12 184.41 3.12C186.66 3.12 188.06 4.76 188.06 6.85C188.06 8.93 186.66 10.57 184.41 10.57ZM204.74 2.21L204.74 10.01L199.01 2.21L197.79 2.21L197.79 11.48L198.84 11.48L198.84 3.65L204.57 11.48L205.79 11.48L205.79 2.21ZM225.65 4.65C225.65 4.03 226.02 3.08 228.12 3.08C229.81 3.08 230.59 3.82 230.71 4.75L231.78 4.75C231.70 3.36 230.58 2.10 228.12 2.10C225.79 2.10 224.63 3.15 224.63 4.66C224.63 7.84 230.97 6.69 230.97 8.96C230.97 10.05 229.99 10.60 228.42 10.60C226.81 10.60 225.51 10.05 225.44 8.71L224.35 8.71C224.49 10.37 225.61 11.59 228.35 11.59C230.64 11.59 232.02 10.64 232.02 8.92C232.02 5.68 225.65 6.80 225.65 4.65ZM244.76 2.10C241.95 2.10 240.06 4.21 240.06 6.85C240.06 9.48 241.95 11.59 244.76 11.59C247.58 11.59 249.47 9.48 249.47 6.85C249.47 4.21 247.58 2.10 244.76 2.10ZM244.76 10.57C242.51 10.57 241.11 8.93 241.11 6.85C241.11 4.76 242.51 3.12 244.76 3.12C247.02 3.12 248.42 4.76 248.42 6.85C248.42 8.93 247.02 10.57 244.76 10.57ZM264.84 3.22L264.84 2.21L258.15 2.21L258.15 11.48L259.20 11.48L259.20 7.46L264.22 7.46L264.22 6.44L259.20 6.44L259.20 3.22ZM279.89 2.21L272.37 2.21L272.37 3.22L275.60 3.22L275.60 11.48L276.65 11.48L276.65 3.22L279.89 3.22ZM293.79 3.70L296.30 11.48L297.49 11.48L300.37 2.21L299.26 2.21L296.88 10.00L294.39 2.21L293.19 2.21L290.70 10.00L288.32 2.21L287.21 2.21L290.09 11.48L291.28 11.48ZM312.33 2.21L311.01 2.21L307.08 11.48L308.24 11.48L309.37 8.79L313.96 8.79L315.10 11.48L316.26 11.48ZM309.78 7.83L311.67 3.30L313.56 7.83ZM325.49 7.92L328.71 7.92L330.95 11.48L332.19 11.48L329.76 7.74C330.79 7.50 332.00 6.90 332.00 5.11C332.00 3.35 330.78 2.21 328.87 2.21L324.44 2.21L324.44 11.48L325.49 11.48ZM325.49 3.21L328.75 3.21C330.06 3.21 330.95 3.93 330.95 5.11C330.95 6.55 329.69 6.93 328.69 6.93L325.49 6.93ZM347.62 3.22L347.62 2.21L340.80 2.21L340.80 11.48L347.62 11.48L347.62 10.47L341.85 10.47L341.85 7.35L347.00 7.35L347.00 6.33L341.85 6.33L341.85 3.22Z"></path></g></svg>