<svg data-v-fde0c5aa="" xmlns="http://www.w3.org/2000/svg" viewBox="0 0 300 300" class="icon"><!----><defs data-v-fde0c5aa=""><!----></defs><rect data-v-fde0c5aa="" fill="#E0EAEF" x="0" y="0" width="300px" height="300px" class="logo-background-square"></rect><!----><defs data-v-fde0c5aa=""><linearGradient data-v-fde0c5aa="" gradientTransform="rotate(25)" id="b729e344-14b3-4dc4-8646-f711146272ca" x1="0%" y1="0%" x2="100%" y2="0%"><stop data-v-fde0c5aa="" offset="0%" stop-color="#08C7D6" stop-opacity="1"></stop><stop data-v-fde0c5aa="" offset="100%" stop-color="#02023E" stop-opacity="1"></stop></linearGradient></defs><g data-v-fde0c5aa="" id="cd6ece38-0cba-4fb1-8041-4af047ed6cc7" fill="url(#b729e344-14b3-4dc4-8646-f711146272ca)" stroke="none" transform="matrix(3.4810128211975098,0,0,3.4810128211975098,-29.620256526331673,-19.351199637845184)"><path d="M81.3 27.3c.2 2.2-1 3.8-3.6 4.9-1.1.5-3.6 1.1-7.4 2 1.2.3 2.8.4 5 .1 2.7-.3 4.5-.5 5.4-.4-.6 1.9-2.3 3.2-4.8 3.8-1.3.3-4 .5-7.9.7-.4-.2 3.5-.1 11.7.4-.6 1.9-2.3 2.9-5.1 3-1 0-2.3-.1-3.9-.2-2.3-.2-3.6-.4-3.8-.4 3.3 1.3 7.2 1.9 11.7 1.8-.5 2.3-2.5 3.1-5.8 2.6-1-.2-2.4-.5-4-1-1.9-.6-3-.9-3.3-1 2.4 1.5 6.1 2.9 11.1 4.1-1.3 1.8-3.3 2.2-6.2 1.2-.8-.3-1.9-.8-3.4-1.6-1.4-.7-2.3-1.2-2.8-1.3 2.2 2.3 5.6 3.8 10 4.5-1.2 1-2.5 1.5-3.9 1.4-1-.1-2.3-.6-3.9-1.4-2.1-1-3.4-1.7-4-1.9-1.6-.5-3-.5-4.3-.1-.3.5-.7 1.1-1.1 2-.5 1.2-.9 1.9-1 2.1.8.1 1.3-.2 1.7-.9.4-.9.8-1.4 1.1-1.5.7-.1 1.6.1 2.7.4 1.1.3 2 .4 2.8.3-.6 1.5-1.7 2.2-3.1 2.1 0 .3.3.4.8.4.7-.1 1.1-.1 1.2 0 0 1-.4 1.7-1.3 2.2-.9.5-1.7.6-2.5.2 0 .3.2.7.5 1.2.2.5.3 1 .2 1.5 0 .6-.2.7-.5.4-.6-.6-.9-.9-1-.9.2.6.3 1.2.2 2-.1 1-.2 1.7-.2 2.2-1.5-.9-2.2-2.7-2.1-5.5-.4-.1-.7.1-1 .4-.3.4-.5.6-.8.6.8.5 1.5 1.5 2.1 3.1.6 1.8 1.2 3 1.7 3.4.2.1.8.2 1.6.5.7.2 1.4.3 1.8.4 1.5.3 2.7.2 3.8-.2.2 1.3-.3 2.3-1.4 3.1-1.5 0-2.8-.5-3.8-1.4-.1.5.3 1.1 1.4 1.8 1.2.9 1.9 1.5 2.1 2-1.8 1-3.4.9-5-.4-1.2-1-2.1-2.5-2.6-4.4-.1.9.4 2.3 1.5 4.1 1.2 1.8 1.7 3.4 1.6 4.9-.5.4-1.2.5-2.1.3-.2-.1-.6-.2-1.1-.4-.4-.2-.7-.3-1-.3-.2-.8-.5-2.3-1-4.3-.5-1.8-.8-3.2-1-4.3-.3 1.2-.2 2.7.2 4.7.1.5.3 1.3.6 2.4.2 1 .4 1.7.5 2.2-2 1.5-3 2.3-3.1 2.4-1.4-.6-2.5-1.5-3.4-2.8.9-5.7 1.4-8.4 1.4-8.3-.4.8-.8 2.1-1.2 4-.5 1.9-.9 3.2-1.2 4-1.1.6-2.4.8-3.8.7-.1-1.5.2-3.1 1.1-4.8.1-.2.5-.9 1.2-2.1.5-.8.9-1.5 1.1-2.2-.3.2-.7.7-1.3 1.6-.7 1.1-1.2 1.8-1.6 2.2-1.6 1.8-3.3 2-5.1.8.3-.6.9-1.2 1.9-1.9 1-.7 1.6-1.3 1.9-1.9-1.1.9-2.3 1.3-3.6 1.2-1.6-.1-2.2-1.1-1.9-3 3.2.5 5.5.2 6.9-.7.6-.5 1.3-1.6 1.9-3.3.5-1.6 1.3-2.6 2.2-2.9-.8-.7-1.4-1.2-1.7-1.4.2 1.6-.4 3.4-1.7 5.5-.3-.5-.5-1.1-.6-1.8-.1-.9 0-1.5.3-2-.1-.2-.2-.3-.3-.2-.1 0-.2.1-.3.4-.3.6-.7.8-1 .6-.1-.6 0-1.2.3-1.8.5-.9.7-1.3.7-1.4-1.3-.2-2-.3-2.2-.4-1-.3-1.6-.9-1.6-1.7-.1-.5 0-.7.5-.7h1.2c-.2-.1-.5-.3-.8-.4-.5-.2-.8-.4-.9-.4-.7-.4-1-.9-1.1-1.5.8.1 1.8-.1 3-.4 1.1-.3 2.1-.4 2.9-.3 1.6 1.7 2.1 2.5 1.7 2.4.3-.2.5-.4.4-.7-.1-.2-.2-.5-.5-.9-.7-1-1-1.9-.9-2.5-1.4-.5-2.9-.4-4.5.1-.7.2-2.1.8-4.2 1.8-1.7.8-3 1.3-4.1 1.4-1.5.2-2.8-.3-4.1-1.3 2.1-.2 5.7-1.7 11.1-4.5-.2 0-2.3.9-6.1 2.5-2.9 1.3-5.2 1.2-7-.1 1-.7 2.8-1.5 5.3-2.4 2.9-.9 4.8-1.6 5.8-2.2.3.1-2.1.6-7.2 1.6-3.4.6-5.4-.2-5.9-2.6.7 0 4.6-.4 11.7-1.4-.8-.1-1.9-.1-3.4 0-2.1.1-3.4.2-3.8.2-3 0-4.8-.8-5.5-2.6 1-.3 2.9-.3 5.6-.1 2.6.2 4.6.1 5.8-.2-.8-.2-2.1-.4-3.8-.6-1.8-.2-3.1-.4-3.8-.5-2.8-.6-4.4-1.8-4.9-3.8 1 .1 2.7.2 5 .4 2.1.2 3.8.3 5 .3-.7-.4-1.9-.8-3.4-1.2-1.7-.5-2.9-.8-3.5-1.1-2.6-1-4-2.7-4.1-5 2.9 1.1 6.2 2 10 2.7-.8-.5-2-1.1-3.5-1.8-2-.8-3.2-1.3-3.7-1.5-2.8-1.4-4.1-3.5-4.2-6.4 2.5 1.7 6.3 3.2 11.7 4.6 6.6 1.7 10.7 3 12.5 3.7-.7 1.6-.8 3.3-.4 5 .3 1.5.9 2.6 1.9 3.4.9.8 1.8 1 2.6.6.9-.5 1.5-1.8 1.8-3.8 0-.1-.1-.3-.4-.5-.2-.2-.3-.4-.3-.6-.6-.2-1.3-.1-1.9.2-.6.3-1 .3-1.2.1-.3-1.2 0-2.1.9-2.9.4-.3.8-.5 1.2-.5.4 0 .8.2 1.1.6.2-.1.3-.1.3-.2s-.1-.1-.3-.3c-.4-.3-.5-.6-.4-.9 2.6-.6 4.7.3 6.1 2.6 1.3 2.1 1.6 4.1.8 6 .4.3 1 .2 1.7-.1.7-.3 1.2-.7 1.4-1.2 0-.6-.6-2.1-1.9-4.6-.4-.8-.5-1.5-.4-2 .1-.6.7-1.2 1.6-1.6 1.1-.5 3.1-1 6-1.6 3.6-.6 6.1-1.2 7.4-1.6 1.3-.4 5.1-1.8 11.4-4.1-.2 2.6-1.6 4.6-4.2 6-.7.4-1.9.9-3.6 1.5-1.6.6-2.8 1.1-3.6 1.5 1.8.5 5-.3 9.5-2zM32 58c-.1.3 0 .6.3.9.3.2.4.5.4.8-.5-.1-.9 0-1.2.4-.3.3-.6.3-.9 0-.2-1.3.3-2 1.4-2.1zm1.7-5.5c.4.5.2 1.1-.5 1.6s-1.4.8-2.2.8c0 .3.3-.4 1-2h1.1c.4 0 .6-.1.6-.4zm1.7 9.7c-.2-.9-.1-1.5.5-2 .8-.6 1.2-1 1.2-1.2-2.6.5-3.9.7-3.8.7-1-1.4-1.2-2.4-.7-3.1.3 0 .8.1 1.5.2.6.2 1.1.2 1.6.1-.1-.4-.5-.8-1.3-1.2-.7-.4-1.1-.9-1.1-1.5l1-1.1c.5-.3 1.1-.4 1.8-.3.5 1.3 1.3 2.3 2.4 3.1.6-.3 1.3-.4 2.2-.1 1.1.3 1.9.5 2.3.5-.2.3-.6.5-1.3.8-.6.2-1 .5-1.2.9.1.2.3.6.6 1.3.3.6.5 1.1.6 1.4.2 1-.4 1.5-1.9 1.5v-1.4c-.1-.5-.3-.7-.7-.7-.5.1-.9.4-1.1 1.2-.2.9-.5 1.4-.6 1.6h.3s-.7-.3-2.3-.7zm-.7 0c.7.1 1.1.3 1.2.8.1.2 0 .8-.2 1.6-.8-.3-1.1-1.1-1-2.4zm6.2 1.7c-.2-.1-.3-.2-.3-.6v-.4-.4c.4.1.6-.1.7-.3.6.2.7.4.4.7-.5.6-.8 1-.8 1zm10.7-11.8c2.3-1.3 3.3-2.2 3.1-2.8-.7 1-1.9 1.8-3.4 2.4-.5-.2-1.3-.9-2.4-1.9-.9-.9-1.4-1.3-1.4-1.2.2.2.5.6.9 1 .4.5.7.8.9 1 .7.9 1.5 1.3 2.3 1.5zm18.7 4.5c.4.5.5 1 .2 1.6-.1.1-.2.4-.5.7-.2.3-.3.6-.4.7-.7.1-1.5 0-2.2-.2-.9-.3-1.5-.5-2-.5l2.1 2.1c-.2 1.2-.9 1.7-2.1 1.7-.2-.2-.5-.7-.7-1.7-.2-.8-.7-1.1-1.3-1.1-.3 0-.4.3-.4.8.1.7.1 1.2 0 1.3-1 .1-1.7-.2-2.1-1 0-.6.1-1.1.5-1.6.5-.6.8-1 .9-1.2-.1-.6-.3-1-.9-1.2-.2-.1-.4-.2-.8-.3-.4-.1-.7-.2-.8-.2.2-.1.5-.2 1-.4.4-.2.8-.3 1-.4.9-.3 1.6-.2 2.2.2.6-.1 1.2-.5 1.7-1.4.5-.9 1-1.5 1.4-1.7 1.3-.2 2 .3 2 1.4.4-.2.4-.4.1-.7-.4-.4-.6-.7-.4-1 1.4.4 2.1.6 2 .6.6.3.9.9.7 1.8-.9-.5-1.7-.4-2.6.1-.3.2-.6.5-1 .8-.5.4-.7.7-.9.8 0-.2 1-.2 3.3 0zm-7.9 7.3c-.1-.1-.3-.1-.5-.3-.2-.1-.4-.2-.5-.2-.3-.3-.5-.7-.4-1.2 1.1 0 1.6.6 1.4 1.7zm5.1-1.7c.6.1.8.5.6 1.1-.1.2-.3.7-.6 1.3-.5-.3-.8-1-.7-2.1.4 0 .6-.1.7-.3zM71 58c.6-.1 1.1.2 1.3.8.2.6.2 1.1-.2 1.6-.3 0-.6-.1-.9-.5-.3-.3-.7-.4-1.2-.2.1-.1.2-.4.5-.8.2-.3.4-.6.5-.9z"></path></g><!----></svg>